<svg fill="none" height="290" viewBox="0 0 273 290" width="273" xmlns="http://www.w3.org/2000/svg" xmlns:xlink="http://www.w3.org/1999/xlink"><clipPath id="a"><path d="m-21 0h315v290h-315z"/></clipPath><g clip-path="url(#a)"><path d="m20.8619 279.496c-27.31211-17.54-29.09658-102.578 23.7242-122.483 52.8207-19.904 43.0353-70.1309 87.4739-107.6756 40.507-34.2235 107.519-5.2135 129.84 83.7876 15.915 63.464-2.656 143.075-15.328 146.369-123.234.002-225.7101.002-225.7101.002z" fill="#ec7123" opacity=".5"/><path d="m-2.34888 281.224h280.41588c.896 0 1.623-.609 1.623-1.358 0-.75-.727-1.358-1.623-1.358h-280.41588c-.89618 0-1.62225.609-1.62225 1.358s.72607 1.358 1.62225 1.358z" fill="#3e3d51"/><path d="m26.9068 214.124h32.7836v-35.444h-26.4238c-3.5122 0-6.3598 2.851-6.3598 6.367z" fill="#8282a8"/><path d="m65.0012 264.095h-54.054l-.7654-38.849c-.0126-.673.0945-1.345.3197-1.985l11.1542-31.717c.8646-2.46 3.3201-4.122 6.0889-4.122h37.2551v76.673z" fill="#2ba349"/><path d="m10.1819 264.095h4.5344c.5481 0 .9923-.445.9923-.994v-11.182c0-.549-.4442-.993-.9923-.993h-4.5344z" fill="#3e3d51"/><path d="m6.12774 209.533h-1.71203v-6c0-4.93 4.00523-8.94 8.92869-8.94h14.5546v1.714h-14.5546c-3.97846 0-7.21666 3.241-7.21666 7.226z" fill="#3e3d51"/><path d="m2.26744 221.903h6.37718c.83947 0 1.51988-.681 1.51988-1.522v-13.12c0-.841-.68041-1.522-1.51988-1.522h-6.37718c-.83948 0-1.519879.681-1.519879 1.522v13.12c-.001575.841.678829 1.522 1.519879 1.522z" fill="#3e3d51"/><path d="m2.2832 219.55v-11.458c0-.45.36383-.814.8127-.814h4.71714c.44887 0 .8127.364.8127.814v11.458c0 .45-.36383.814-.8127.814h-4.71714c-.44887-.002-.8127-.366-.8127-.814z" fill="#fbf3ff"/><path d="m22.1439 223.373h28.1563c1.7451 0 3.161-1.416 3.161-3.165v-23.183c0-1.748-1.4159-3.165-3.161-3.165h-21.0562c-1.3891 0-2.6145.908-3.0224 2.237l-7.0985 23.183c-.6237 2.033.8961 4.093 3.0208 4.093z" fill="#3e3d51"/><path d="m23.0071 206.595-3.884 12.685c-.6237 2.035.8962 4.093 3.0225 4.093h28.1547c1.7451 0 3.161-1.416 3.161-3.165v-13.613z" fill="#b1b1de"/><path d="m18.5041 263.417c-.0063 8.679 7.0229 15.718 15.6917 15.711 8.5239-.006 15.6618-7.155 15.6681-15.688.0063-8.679-7.0229-15.716-15.6901-15.709-8.5255.004-15.6634 7.151-15.6697 15.686z" fill="#333343"/><path d="m175.777 278.644c8.292 0 15.013-6.92 15.013-15.457s-6.721-15.458-15.013-15.458c-8.291 0-15.013 6.921-15.013 15.458s6.722 15.457 15.013 15.457z" fill="#333343"/><path d="m61.7253 242.577h159.9997c1.124 0 2.035-.913 2.035-2.037v-95.939c0-1.126-.912-2.037-2.035-2.037h-159.9997c-1.1245 0-2.0349.913-2.0349 2.037v95.939c0 1.124.9104 2.037 2.0349 2.037z" fill="#8282a8"/><path d="m219.34 238.494c.189 0 .342-.154.342-.342v-91.162c0-.189-.154-.342-.342-.342h-77.529v91.848h77.529z" fill="#3e3d51"/><path d="m219.34 171c.189 0 .342-.041.342-.092v-24.202c0-.05-.154-.091-.342-.091h-77.529v24.385z" fill="#d6d6ed"/><path d="m64.1099 142.564h73.6251v100.013h-73.6251c-2.4413 0-4.4195-1.981-4.4195-4.425v-91.162c0-2.446 1.9782-4.426 4.4195-4.426z" fill="#b1b1de"/><path d="m178.592 238.494h33.027v-27.555h-33.027z" fill="#b1b1de"/><path d="m141.811 238.494h41.673v-32.944h-41.673z" fill="#fbf3ff"/><path d="m141.81 205.55h35.558v-31.355h-35.558z" fill="#b1b1de"/><path d="m63.294 264.095h149.794v-21.52h-149.794c-1.0442 0-1.8916.849-1.8916 1.894v17.732c0 1.047.8474 1.894 1.8916 1.894z" fill="#3e3d51"/><path d="m139.936 261.52h71.683v-16.042h-71.683z" fill="#8282a8"/><path d="m142.299 257.928h20.711v-6.368h-20.711z" fill="#2ba349"/><path d="m142.298 257.928h12.498v-6.368h-12.498z" fill="#ec7123"/><path d="m186.284 257.928h20.712v-6.368h-20.712z" fill="#2ba349"/><path d="m197.616 257.928h9.379v-6.368h-9.379z" fill="#ec7123"/><path d="m111.698 263.187c0 8.536 2.097 15.457 14.397 15.457 8.293 0 15.629-6.92 15.629-15.457s-6.722-15.458-15.013-15.458c-8.29 0-15.013 6.92-15.013 15.458z" fill="#333343"/><path d="m107.063 262.761c0 9.039 7.157 15.882 15.449 15.882 8.293 0 14.579-6.843 14.579-15.882s-6.722-16.366-15.013-16.366c-8.293 0-15.015 7.328-15.015 16.366z" fill="#333343"/><path d="m16.5842 263.133c0 8.834 6.7221 15.995 15.0129 15.995 8.2924 0 15.0129-7.161 15.0129-15.995 0-8.833-6.7221-15.995-15.0129-15.995s-15.0129 7.162-15.0129 15.995z" fill="#333343"/><path d="m24.2166 262.761c0 4.445 3.3059 8.047 7.382 8.047 4.0777 0 7.3821-3.603 7.3821-8.047s-3.3044-8.048-7.3821-8.048c-4.0776 0-7.382 3.604-7.382 8.048z" fill="#8282a8"/><path d="m114.694 262.761c0 4.445 3.304 8.047 7.382 8.047s7.382-3.603 7.382-8.047-3.306-8.048-7.382-8.048-7.382 3.604-7.382 8.048z" fill="#8282a8"/><path d="m186.807 164.673h-13.947c0 1.984 1.607 3.592 3.588 3.592h6.77c1.982 0 3.589-1.608 3.589-3.592z" fill="#b1b1de"/><path d="m24.6891 234.322h-7.3568v-3.26h10.6123c0 1.801-1.4569 3.26-3.2555 3.26z" fill="#ec7123"/><path d="m135.717 271.933s-.014.134-.014.356c0 .669.131 2.143 1.175 3.231 1.392 1.451 1.4 3.257-.071 3.564-1.471.309-4.98-.099-4.98-.099s-.794-1.38-.252-5.067.857-7.73.857-7.73l3.999-.625z" fill="#ffaf95"/><path d="m136.5 273.5s1.484 2.015 1.83 2.856c.347.84.273 2.932 0 3.148-2.399 1.895-6.946.189-6.946.189s-.312-1.391-.471-3.097c-.157-1.707-.069-3.296.471-3.296.539 0 .635.894 1.865.642 1.232-.253 1.989-.694 3.251-.442z" fill="#ec7123"/><path d="m131.008 277.446c.924.361 2.18.785 3.347.951 1.246.178 2.923-.377 4.188-.936.066.895-.029 1.896-.213 2.041-2.399 1.895-6.946.189-6.946.189s-.212-.949-.376-2.245z" fill="#fbf3ff"/><path d="m131.008 277.446c3.441 1.034 4.074 1.219 7.535.015-.577.311-1.182.568-1.81.767-1.331.413-2.115.377-2.945.191-.991-.221-1.922-.557-2.78-.973z" fill="#8282a8"/><path d="m175.719 209.216c-.984.371-2.29.921-2.29.921-.169-.407 3.081-1.102 3.536-2.093.244-.529-3.728 1.421-4.004 1.189-.115-.096 4.494-1.599 4.281-1.96-.178-.304-4.845 1.342-4.87 1.114-.036-.317 4.04-1.136 3.675-1.592-.188-.233-5.133 1.106-5.667 1.185-.654 0 1.71-1.607.905-1.822-1.093-.291-3.838 2.859-4.052 2.904-.621.129-5.913.777-8.504-.92-2.091-1.37-4.123-3.477-4.619-5.292-.487-1.779-1.162-4.319-.586-6.28-2.356-.359-4.643-.441-7.034-.156-.145 2.943 3.374 14.606 4.846 15.567 3.239 2.111 9.014 1.594 13.087 1.258 3.282-.27 6.497-.918 9.453-2.421.662-.336 1.545-.711 2.057-1.296.129-.148-.027-.375-.214-.306z" fill="#ffaf95"/><path d="m152.051 186.692c1.755 1.814 3.525 12.682 2.873 15.273-1.124 2.104-6.223 2.468-7.87 3.465-3.802-1.566-1.197-8.585-1.197-8.585l-1.386-13.674s4.24.066 7.58 3.521z" fill="#3e3d51"/><path d="m147.257 269.502c-.52 1.634-.006 3.433 1.325 4.512.46.372.992.722 1.595.986 2.33 1.018 5.346.79 5.766 2.884.421 2.094-14.768-.588-14.768-.588s1.053-5.094 1.121-5.947-.093-3.985-.093-3.985l5.865-.421z" fill="#ffaf95"/><path d="m141.792 273.692s-.186.809-.611 2.18c-.425 1.372-.161 2.662-.161 2.662s14.227.675 14.804.224c.576-.451.28-2.095.134-2.24-.145-.145-1.952-.634-2.878-1.206s-4.089-2.736-5.157-2.649c-1.067.088-1.562.878-3.591.968-2.028.091-2.036-.334-2.54.061z" fill="#ec7123"/><path d="m155.824 278.758c-.577.451-14.804-.224-14.804-.224s-.173-.847-.014-1.899c7.426 1.378 14.951-.117 14.951-.117.147.147.443 1.789-.133 2.24z" fill="#fbf3ff"/><path d="m141.006 276.637c5.071 1.014 10.694.799 14.951-.117-7.744 1.172-13.989.263-13.556.307-.018-.003-1.488-.203-1.395-.19z" fill="#8282a8"/><path d="m130.019 220.143c-2.442 8.937.589 49.027.589 49.027l7.308-.5s1.661-39.88 2.868-41.088c.353-.354.732-.242 1.024-.041.294.201.5.507.604.85.753 2.46 5.051 16.785 4.185 19.922-.95 3.434-5.183 21.834-5.183 21.834l6.131.246s8.408-14.057 8.408-23.869c0-9.813-1.367-22.822-5.341-28.114-1.808-2.41-10.712-4.272-10.712-4.272s-9.119 3.214-9.881 6.005z" fill="#ece1ef"/><g fill="#d6d6ed"><path d="m143.225 270.128s4.234-19.619 5.183-23.28c.69-2.659-1.886-12.862-3.35-18.249-.439-1.618-2.379-2.27-3.704-1.244 0 0 6.191 17.52 5.242 20.954-.95 3.435-5.184 21.835-5.184 21.835l6.132.246s.016-.025.044-.075z"/><path d="m131.535 218.288c-.784.614-1.349 1.245-1.516 1.855-2.442 8.937.589 49.027.589 49.027l1.809-.125c-.1-1.451-2.726-39.185-.882-50.757z"/><path d="m152.015 220.802c-.427-.91-.894-1.717-1.403-2.397-.21-.279-.515-.552-.892-.815-1.015.519-2.42 1.086-4.362 1.684-5.859 1.804-12.175.842-14.799-.072-.266.315-.454.63-.539.939-.211.776-.382 1.786-.518 2.983 1.311.976 8.926 3.333 15.856 1.124 4.397-1.399 6.035-2.249 6.657-3.446z"/><path d="m130.611 272.204c1.873.608 6.379.457 7.456 0 .992-.423 1.06-4.118 0-4.318-1.488-.282-5.708-.251-7.456 0-1.068.153-1.025 3.985 0 4.318z"/><path d="m141.724 270.553c1.873.608 6.379.457 7.456 0 .993-.423 1.06-4.118 0-4.318-1.488-.282-5.708-.251-7.456 0-1.068.153-1.027 3.985 0 4.318z"/></g><path d="m138.932 182.863s-6.094-.314-8.586 2.642c-2.491 2.955-2.287 34.002-1.279 34.868s9.669 3.484 16.549 1.445c6.88-2.038 7.317-4.837 7.317-4.837s-1.83-20.879-1.83-26.586c0-5.704-5.564-9.066-12.171-7.532z" fill="#8282a8"/><path d="m133.556 214.313c-.538-1.5.038-6.267.651-9.717.48.091.942.2 1.376.326.737-2.282 1.386-8.203 1.407-11.927.041-6.984-3.49-9.015-3.49-9.015-.7-.16-1.82.5-3.571 2.324-2.022 5.537-1.599 31.302-.65 32.115.404.347 1.193 2.525 3.231 2.957.531-2.08 1.544-5.678 1.046-7.063z" fill="#3e3d51"/><path d="m138.406 182.928c-1.322 1.216-1.424 1.239-.051 2.835 1.374 1.596 5.919 3.41 6.568 3.104 1.61-.76.112-3.301-.959-5.127-.336-.569-4.237-2.028-5.558-.812z" fill="#3e3d51"/><path d="m144.314 178.329s.355 8.403 0 8.772c-.356.367-5.456-1.412-5.902-2.454-.444-1.043 1.859-16.234 1.859-16.234z" fill="#ffaf95"/><path d="m144.471 183.171c-.901-.163-1.855-.639-2.062-.915-1.246-1.66-.746-3.793-.91-4.784-.326-1.976-.611-5.023-.279-6.728l3.093 7.587c0-.002.133 2.337.158 4.84z" fill="#ff7685" opacity=".6"/><path d="m171.64 187.826c.403.911-.372 1.818-1.158 1.37-.14-.08-.25-.208-.315-.356-.405-.912.372-1.82 1.159-1.37.139.08.248.208.314.356z" fill="#3e3d51"/><path d="m172.216 181.822c-.364-.522-.896-.632-1.46-.294-1.913 1.137-.181 6.131.024 6.697l.156.434.258-.363c1.597-2.246 1.857-5.27 1.022-6.474zm-1.142 5.725c-.524-1.64-1.258-4.824-.096-5.515.066-.039.131-.071.192-.091.27-.095.489-.016.665.238.569.818.517 3.291-.761 5.368z" fill="#3e3d51"/><path d="m170.699 187.651c-.291-.426-2.896-4.121-4.488-2.881-.478.372-.637.908-.437 1.471.375 1.06 1.927 1.979 3.702 1.979.352 0 .715-.036 1.079-.115l.398-.087zm-4.473-1.624c-.11-.309-.025-.567.257-.786.139-.109.296-.156.468-.156.965 0 2.345 1.546 3.09 2.536-1.891.227-3.518-.754-3.815-1.594z" fill="#3e3d51"/><path d="m184.941 210.113h-26.539c-.605 0-1.095-.49-1.095-1.096v-19.513c0-.606.49-1.096 1.095-1.096h26.539c.604 0 1.094.49 1.094 1.096v19.513c-.001.606-.491 1.096-1.094 1.096z" fill="#ec7123"/><path d="m184.155 188.41h-8.979v21.703h8.979c1.038 0 1.879-1.346 1.879-3.007v-15.688c0-1.662-.841-3.008-1.879-3.008z" fill="#d65107"/><path d="m167.101 188.41h-.709c-3.832 6.926-1.485 19.059-.907 21.703h.553c-.397-1.782-3.135-14.978 1.03-21.64.012-.019.023-.041.033-.063z" fill="#3e3d51"/><path d="m180.351 210.031c-.003.027-.005.056-.005.082h.526c1.547-12.365-.16-18.906-1.312-21.703h-.649c1.046 2.337 3.058 8.782 1.44 21.621z" fill="#3e3d51"/><path d="m138.047 233.579h-18.559c-.156 0-.282-.126-.282-.282v-12.296c0-.156.126-.282.282-.282h18.559c.155 0 .281.126.281.282v12.296c.002.154-.126.282-.281.282z" fill="#3e3d51"/><path d="m137.599 222.199h-16.197v9.899h16.197z" fill="#fbf3ff"/><path d="m138.579 229.977h-1.389c-.088 0-.159-.071-.159-.159v-5.341c0-.089.071-.16.159-.16h1.389c.088 0 .159.071.159.16v5.341c0 .088-.071.159-.159.159z" fill="#ff7685"/><path d="m132.087 214.313c1.205 3.673-3.04 11.617-1.315 14.161 1.724 2.542.856 5.212-1.234 6.537-2.09 1.323-4.685-.532-4.477-1.539.209-1.008.773-3.721 1.03-4.962.258-1.239-4.602-11.176-1.182-17.201 2.031-3.575-.971-9.729.615-13.706 1.419 2.648 8.136.994 7.752 3.9-.613 2.481-1.866 10.744-1.189 12.81z" fill="#ffaf95"/><path d="m147.306 169.618s.874 3.015.874 5.488-.058 6.754-1.808 6.754-4.257-.482-4.84-3.98 0-7.358 1.75-8.263c1.75-.904 4.024.001 4.024.001z" fill="#ffaf95"/><path d="m146.624 171.846c-.471-.194-.958.226-.868.742.145.826.109 1.731-.663 1.92-1.487.365-2.189 0-2.433.251-.244.252.702 1.594 0 1.845-.703.252-1.082-2.152-1.703-2.152-.622 0-.757 3.466 0 4.25.758.782-.109 1.845-1.109 1.845s.126 1.258-1.22 1.678c-1.347.419-2.429.419-2.861-1.286-.433-1.704 0-2.655 0-2.655s-1.376-1.612-1.026-3.206c.193-.887 1.09-2.479 1.09-2.479s.694-1.893.883-2.982c.189-1.09 2.87-2.181 4.706-2.377 1.837-.195.917-1.314 2.457-1.314 1.541 0 1.753 2.038 1.753 2.038s2.2-1.317 2.303-1.255c1.28.78.216 2.152.216 2.152s1.053.112 1.271 1.483c.215 1.37-.676 2.209-2.082 1.761-.268-.085-.504-.172-.714-.259z" fill="#333343"/><path d="m141.932 174.266s-.743-1.371-1.405-.606c-.661.765-.315 3.999.703 3.999 1.017-.001 1.063-2.528.702-3.393z" fill="#ffaf95"/><path d="m133.687 184.046s2.073 1.58 2.035 8.563c-.021 3.723-1.112 10.031-1.785 12.313-2.79-.883-6.728-.941-9.579 0-.384-3.047.392-9.549.876-11.649 1.192-5.166 5.492-10.408 8.453-9.227z" fill="#8282a8"/><path d="m146.232 167.227c-1.378-2.895-4.862-4.114-7.782-2.72-2.919 1.393-4.169 4.87-2.79 7.765.054.112.111.219.171.327l10.549-5.034c-.047-.114-.096-.226-.148-.338z" fill="#8282a8"/><path d="m144.038 168.549c-.046-.114-.093-.226-.147-.337-1.151-2.42-3.772-3.667-6.304-3.202.267-.189.556-.358.861-.504 2.92-1.393 6.404-.175 7.782 2.72.054.112.101.224.147.337l-10.55 5.034c-.017-.033 8.211-4.048 8.211-4.048z" fill="#ece1ef"/><path d="m151.088 165.461c-.112-.236-5.604 2.008-9.117 3.682-3.51 1.677-6.266 3.225-6.155 3.462.112.236 5.937-1.134 9.449-2.809 3.51-1.676 5.934-4.1 5.823-4.335z" fill="#5e5e75"/><path d="m255.801 269.282s1.227 1.216 1.256 1.662c.028.446.108 5.226-.392 5.672-.501.446-1.974.763-1.5 1.265.358.38 3.109.298 4.933.195.532-.03 1.2-4.339 1.411-4.973.306-.92 1.274-3.235.996-3.877-.136-.312-1.008-.712-1.922-1.312-.962-.63-1.882-2.034-1.882-2.034z" fill="#f7a491"/><path d="m239.379 272.268s1.098 3.15 1.099 3.157c.082.499.404 1.732.404 2.186 0 1.705-7.573-1.446-5.877-2.201.155-.068.636-.615.687-1.194.077-.894-.638-2.014-.638-2.014z" fill="#f7a491"/><path d="m240.009 216.111 3.92 4.579 3.845 23.959 12.099 22.351s-1.819 2.796-3.772 3.236l-17.173-22.591-9.306-28.279.326-6.283z" fill="#333343"/><path d="m230.195 211.69-2.71 8.368s-2.385 24.926-2.046 26.643c.828 4.188 9.191 26.998 9.191 26.998l5.358-.683-5.881-26.97 9.8-25.335z" fill="#3e3d51"/><path d="m204.181 183.207c1.266 1.399.991 1.567 1.158 1.743.198.206 3.874.991 3.874.991s10.822 2.386 11.409 2.495l11.227-2.556 2.733 5.447s-12.281 2.443-12.942 2.452c-.662.011-14.911-5.001-16.179-5.4 0 0-1.686.111-2.748.142-1.062.034-2.076-.43-2.377-.468-.044-.006-1.034-.196-2.189-.77-.995-.495.17-.504.17-.504s2.007.569 2.024.396c.014-.134-1.101-.377-2.208-.912-.285-.137-.566-.274-.822-.402-.674-.336-.665-.866.096-.632.268.082.71.23 1.011.383.324.165.676.206.969.301.582.188 1.006.333 1 .303-.007-.038.134-.087-.164-.243-.358-.188-1.205-.408-1.711-.727-.286-.181-.908-.52-.908-.52s-1.037-.678-.936-.819c.221-.306.945.003 1.304.303.323.066.967.443.967.443s1.47.454 1.536.237c.027-.087-.731-.527-1.488-1.052-.801-.555-1.35-.995-1.273-1.175.121-.284.795.11.795.11s.596.349.8.448c.241.117.991.41.991.41s2.657.891 2.704.68c.046-.211-.039-.8-.185-.915-.145-.115-.52-.178-.667-.293-.145-.115-.434-.393-.312-.591.123-.201 1.229.067 1.229.067s.746.224 1.112.628z" fill="#f8a492"/><path d="m228.001 186.456s.386 2.387.635 3.27c.206.734 1.658 3.753 1.658 3.753s5.206-1.707 7.666-2.685c2.984-1.186 6.434-3.739 6.21-4.062-.628-.907-1.643-1.967-3.074-2.325-4.955-1.241-13.095 2.049-13.095 2.049z" fill="#8282a8"/><path d="m227.399 219.883c4.966 1.962 16.639.829 16.639.829s-.74-5.103-1.002-8.549c-.261-3.444 1.929-8.897 2.854-18.36.195-2.008-.587-7.426-3.397-9.128-.988-.596-1.593-.675-1.593-.675-.026 0-3.866-.785-5.826-.179-.557.496-2.291 1.931-3.29 3.608-1.312 2.222-2.389 4.783-2.643 5.626-1.132 3.753-1.612 14.619-1.612 16.667.001 2.049-.13 10.161-.13 10.161z" fill="#b1b1de"/><path d="m231.786 187.427c.003.003.008.003.012.005 1.909.594 9.107-3.413 9.107-3.413l-.003-.02-.873-5.715s-4.491-1.06-4.232.566c.262 1.623-.609 4.866-.609 4.866-.028.029-.065.063-.112.103-.557.497-2.292 1.932-3.29 3.608z" fill="#f7a491"/><path d="m235.797 178.848c-.261-1.624 4.232-.563 4.232-.563l.073.476c-.131.319-.293.59-.487.8-1.003 1.074-2.572 1.72-3.929 1.768.137-.875.22-1.814.111-2.481z" fill="#fe875e"/><path d="m240.897 169.497c.137-.051 1.103 7.074-.729 9.034s-5.401 2.602-6.68 1.058c-1.415-1.707-1.345-9.364 1.503-11.381 2.849-2.015 5.906 1.289 5.906 1.289z" fill="#f7a491"/><path d="m236.076 164.398c2.2.447 3.627 1.784 4.15 2.355 1 .117 2.358.667 3.761 2.976 1.725 2.84.451 5.987-1.556 7.531-2.008 1.544-1.984 3.337-1.984 3.337s-3.402-1.749-3.071-4.441c.138-1.13.628-1.386.261-2.27-.381-.918-.096-2.347-.167-3.588l-.205-.782s-1.425-1.103-2.819-.792-1.194-4.9 1.63-4.326z" fill="#333343"/><path d="m237.076 174.627c-.014.869.162 1.566.666 1.574.504.009.648-.332 1.065-1.559.392-1.149-.083-1.581-.587-1.589-.506-.01-1.128.705-1.144 1.574z" fill="#f7a491"/><path d="m260.522 267.884s-2.564 7.887-3.672 8.278c-.294.104-1.97.565-2.236 1.197-.006.016-.013.035-.017.057-.087.4.25.771.661.771h5.254s.747-3.563 1.041-5.127c0 0 1.561-3.824 1.388-4.171-.175-.349-2.419-1.005-2.419-1.005z" fill="#333343"/><path d="m241.313 278.174-.868-2.78s-1.82.782-2.732.651c-.911-.131-2.689-.651-2.689-.651-3.635 1.214-6.612 1.804-6.072 2.78z" fill="#333343"/><path d="m203.869 195.247c1.673 1.016 1.573 1.137 1.792 1.262.259.146 4.232-.027 4.232-.027s11.718-.438 12.35-.484l10.806-5.248 4.259 4.504s-11.915 5.404-12.591 5.58c-.675.177-16.605-1.028-18.01-1.089 0 0-1.698.526-2.775.825-1.077.296-2.241.11-2.558.148-.047.006-1.112.072-2.447-.185-1.152-.222.039-.523.039-.523s2.207.039 2.178-.131c-.022-.131-1.227-.084-2.504-.316-.329-.06-.652-.119-.95-.176-.779-.152-.912-.659-.071-.626.298.011.789.041 1.139.112.377.075.747.027 1.073.042.647.033 1.082.065 1.069.038-.017-.035.151-.115-.195-.189-.418-.088-1.344-.088-1.947-.265-.342-.101-1.069-.268-1.069-.268s-.863-.516-.857-.585c.031-.371.647-.196 1.095 0 .348-.018 1.108.18 1.108.18s1.626.064 1.637-.16c.004-.085-.934-.148-1.901-.457-1.107-.353-1.382-.85-1.35-1.047.049-.301.672-.019.672-.019s.854.389 1.092.434c.279.05 3.931.118 3.923-.095-.009-.213-.36-.492-.542-.565-.179-.072-.522-.171-.702-.244-.18-.074-.304-.446-.23-.667.073-.221.868-.103.868-.103s.883.052 1.367.344z" fill="#f8a492"/><path d="m234.107 200.082s-2.126-2.685-2.868-3.772c-1.438-2.11-2.643-4.489-2.643-4.489s5.924-3.416 8.132-4.582c8.102-4.275 7.915 2.101 7.537 3.515-.841 3.167-10.158 9.328-10.158 9.328z" fill="#d6d6ed"/><path d="m204.044 186.167c-.701-.401-1.243-1.028-1.065-1.817-.6.626.158 1.779 1.065 1.817z" fill="#fe875e"/></g></svg>